<mxfile host="app.diagrams.net" modified="2023-07-21T19:28:38.913Z" agent="Mozilla/5.0 (X11; Ubuntu; Linux x86_64; rv:109.0) Gecko/20100101 Firefox/115.0" version="21.3.2" etag="YYUeicbRB-BrxKZc2cKw" type="github">
  <diagram name="Page-1" id="3QJkPT5p9YgAad-IyBT9">
    <mxGraphModel>
      <root>
        <mxCell id="0" />
        <mxCell id="1" parent="0" />
      </root>
    </mxGraphModel>
  </diagram>
</mxfile>
